<svg id="Laag_1" data-name="Laag 1" xmlns="http://www.w3.org/2000/svg" viewBox="0 0 610.76 114.9"><defs><style>.cls-1{fill:#df1e26;}.cls-2{fill:#fff;}</style></defs><path class="cls-1" d="M0,57.45A57.44,57.44,0,1,1,57.43,114.9,57.44,57.44,0,0,1,0,57.45Z"/><path class="cls-2" d="M98.59,23.86c2-1.17,4.6-.08,6.39,2.88l1.89,3.54c1.78,2.95,1.5,5.79-.44,7s-4.74.16-6.52-2.8L98,30.93c-1.78-3-1.38-5.88.58-7.07Z"/><path class="cls-2" d="M81.19,22.45c2-1.19,4.6-.08,6.37,2.88l11.8,20c1.79,3,1.51,5.81-.46,7s-4.72.17-6.5-2.8l-11.79-20c-1.78-3-1.38-5.89.58-7.06Z"/><path class="cls-2" d="M63.69,22.92l.47-.28A4.28,4.28,0,0,1,70,24.1l2.2,3.67a4.27,4.27,0,0,1-.85,5.42l18.4,30.64c1,1.62.73,3.56-.54,4.31A3.23,3.23,0,0,1,85,66.69l-4.79-8c-.29-.28-18-29.95-18-29.95a4.08,4.08,0,0,1-.6-1.85,3,3,0,0,1,.5-2.39,4.22,4.22,0,0,1,1.55-1.62Z"/><path class="cls-2" d="M46.39,22.91l.46-.27a4.27,4.27,0,0,1,5.86,1.45L65.3,45a4.27,4.27,0,0,1-.85,5.42L81.66,79.11c1,1.63.73,3.56-.55,4.32A3.23,3.23,0,0,1,76.9,82L67.29,66C67,65.72,44.93,28.77,44.93,28.77a4.43,4.43,0,0,1-.6-1.84,3,3,0,0,1,.5-2.4,4.32,4.32,0,0,1,1.56-1.62Z"/><path class="cls-2" d="M29.1,22.92l.45-.28a4.26,4.26,0,0,1,5.86,1.46L58,61.61A4.29,4.29,0,0,1,57.11,67L73.53,94.37c1,1.63.74,3.57-.54,4.32a3.22,3.22,0,0,1-4.21-1.46L54.79,74c-.29-.27-27.15-45.19-27.15-45.19a4,4,0,0,1-.59-1.84,3,3,0,0,1,.48-2.39,4.28,4.28,0,0,1,1.57-1.62Z"/><path class="cls-2" d="M12.35,23.84l.46-.27A4.26,4.26,0,0,1,18.67,25L49.25,75.92a4.27,4.27,0,0,1-.85,5.41l16.47,27.41c1,1.61.72,3.55-.55,4.31a3.25,3.25,0,0,1-4.22-1.46l-18-30c-.3-.27-31.2-51.92-31.2-51.92a4.27,4.27,0,0,1-.59-1.84,3,3,0,0,1,.49-2.4,4.4,4.4,0,0,1,1.56-1.62Z"/><path d="M377.25,31.34v25h17.21a12.71,12.71,0,0,0,9.19-3.48,11.9,11.9,0,0,0,3.61-9q0-9.44-8.28-11.92a17.74,17.74,0,0,0-5-.55ZM365.64,97V20.47h27.74q11.21,0,18.17,6.14c4.88,4.29,7.31,10.15,7.31,17.52a21.59,21.59,0,0,1-7,16.51,24,24,0,0,1-17,6.5H377.25V97Z"/><polygon points="212.66 97.03 212.66 20.47 261.59 20.47 261.59 31.34 224.28 31.34 224.28 53.27 256.1 53.27 256.1 63.6 224.28 63.6 224.28 86.17 261.59 86.17 261.59 97.03 212.66 97.03 212.66 97.03"/><polygon points="168.94 97.01 143.66 20.35 155.9 20.35 173.34 78.7 173.6 78.7 191.04 20.35 203.29 20.35 177.99 97.01 168.94 97.01 168.94 97.01"/><polygon points="551.08 97.03 551.08 20.47 562.7 20.47 562.7 59.95 594.42 20.47 608.21 20.47 583.6 50.58 610.76 97.03 596.93 97.03 576.16 59.59 562.7 73.69 562.7 97.03 551.08 97.03 551.08 97.03"/><polygon points="339.14 30.41 339.14 20.47 350.75 20.47 350.75 30.41 339.14 30.41 339.14 30.41"/><polygon points="339.14 97.03 339.14 34.65 350.75 34.65 350.75 97.03 339.14 97.03 339.14 97.03"/><polygon points="450.14 20.43 475.41 96.98 463.17 96.98 445.75 38.7 445.49 38.7 428.07 96.98 415.84 96.98 441.11 20.43 450.14 20.43 450.14 20.43"/><path d="M511.19,64.21l-4.37-10.33,7.06,0a13.71,13.71,0,0,0,9.37-3.23,11.31,11.31,0,0,0,3.65-8.92q0-11.07-12.38-11.08H496.35V96.91H484.74V20.35h29.9q9.68,0,15.58,5.06a20.62,20.62,0,0,1,7.64,16.34,22.6,22.6,0,0,1-3.92,13.11A21.06,21.06,0,0,1,523,62.93l17.74,34H527l-15.8-32.7Z"/><path d="M297.91,64.21l-4.37-10.33,7.06,0A13.71,13.71,0,0,0,310,50.67a11.31,11.31,0,0,0,3.65-8.92q0-11.07-12.36-11.08H283.07V96.91h-11.6V20.35h29.88q9.66,0,15.6,5.06a20.63,20.63,0,0,1,7.62,16.34,22.59,22.59,0,0,1-3.91,13.11,21.11,21.11,0,0,1-10.91,8.07l17.73,34H313.72l-15.81-32.7Z"/></svg>